<?xml version="1.0" standalone="no"?>
<!DOCTYPE svg PUBLIC "-//W3C//DTD SVG 20010904//EN"
 "http://www.w3.org/TR/2001/REC-SVG-20010904/DTD/svg10.dtd">
<svg version="1.0" xmlns="http://www.w3.org/2000/svg"
 width="2480.000000pt" height="1748.000000pt" viewBox="0 0 2480.000000 1748.000000"
 preserveAspectRatio="xMidYMid meet">

<g transform="translate(0.000000,1748.000000) scale(0.100000,-0.100000)"
fill="#000000" stroke="none">
<path d="M16648 11500 c-3 -8 -11 -35 -18 -60 -7 -25 -16 -55 -21 -68 -12 -31
-11 -55 1 -47 6 3 10 17 10 30 0 13 5 27 10 30 6 3 10 19 10 34 0 15 5 32 11
38 6 6 9 21 7 34 -3 17 -6 20 -10 9z"/>
<path d="M16580 11274 c0 -14 4 -23 10 -19 6 3 10 15 10 26 0 10 -4 19 -10 19
-5 0 -10 -12 -10 -26z"/>
<path d="M16568 11234 c-5 -4 -8 -19 -8 -33 0 -18 3 -22 11 -14 6 6 9 21 7 33
-1 12 -6 18 -10 14z"/>
<path d="M16548 11164 c-5 -4 -8 -19 -8 -33 0 -18 3 -22 11 -14 6 6 9 21 7 33
-1 12 -6 18 -10 14z"/>
<path d="M16520 11074 c0 -14 4 -23 10 -19 6 3 10 15 10 26 0 10 -4 19 -10 19
-5 0 -10 -12 -10 -26z"/>
<path d="M16500 11004 c0 -14 4 -23 10 -19 6 3 10 15 10 26 0 10 -4 19 -10 19
-5 0 -10 -12 -10 -26z"/>
<path d="M16488 10964 c-5 -4 -8 -19 -8 -33 0 -18 3 -22 11 -14 6 6 9 21 7 33
-1 12 -6 18 -10 14z"/>
<path d="M16468 10894 c-5 -4 -8 -19 -8 -33 1 -23 2 -24 11 -8 11 19 9 53 -3
41z"/>
<path d="M16440 10804 c0 -14 4 -23 10 -19 6 3 10 15 10 26 0 10 -4 19 -10 19
-5 0 -10 -12 -10 -26z"/>
<path d="M16420 10734 c0 -14 4 -23 10 -19 6 3 10 15 10 26 0 10 -4 19 -10 19
-5 0 -10 -12 -10 -26z"/>
<path d="M17340 10706 c0 -2 -36 -120 -81 -262 -45 -143 -90 -287 -100 -321
-10 -35 -28 -91 -38 -125 -10 -35 -22 -71 -26 -80 -5 -12 -3 -18 6 -18 272 -5
791 3 821 12 115 34 167 136 284 548 41 144 30 200 -44 231 -40 17 -75 19
-433 19 -214 0 -389 -2 -389 -4z m660 -204 l23 -19 -28 -89 c-15 -49 -36 -118
-47 -154 -11 -36 -24 -78 -30 -93 -21 -55 -30 -57 -310 -57 -184 0 -258 3
-258 11 0 6 21 77 46 158 70 221 74 234 86 248 8 10 69 13 253 13 220 0 245
-2 265 -18z"/>
<path d="M18439 10348 c-166 -200 -318 -380 -337 -400 -21 -22 -32 -41 -27
-46 6 -4 56 -6 111 -4 l102 3 63 80 64 79 226 0 226 0 13 -62 c6 -35 14 -71
17 -80 4 -16 18 -18 107 -18 56 0 105 2 108 6 3 3 2 22 -3 42 -5 20 -19 82
-30 137 -12 55 -25 118 -30 140 -5 22 -14 63 -19 90 -5 28 -14 70 -20 95 -6
25 -15 68 -20 95 -16 79 -29 137 -38 170 l-8 30 -101 3 -101 3 -303 -363z
m346 141 c7 -10 55 -232 55 -250 0 -5 -63 -9 -141 -9 -77 0 -139 4 -137 8 6
16 203 260 210 261 4 1 10 -4 13 -10z"/>
<path d="M19446 10698 c-2 -7 -11 -38 -21 -68 -9 -30 -21 -68 -25 -85 -4 -16
-22 -75 -40 -130 -17 -55 -40 -127 -50 -160 -19 -61 -91 -291 -104 -333 -8
-23 -8 -23 85 -20 l93 3 17 50 c9 28 31 97 49 155 18 58 40 130 50 160 10 30
24 76 31 103 7 26 16 47 20 47 12 0 37 -37 145 -210 60 -96 123 -197 141 -225
62 -98 49 -90 155 -87 l94 3 43 137 c76 245 142 455 175 560 24 74 30 105 21
108 -6 3 -47 4 -91 2 l-79 -3 -22 -65 c-12 -36 -36 -112 -54 -170 -17 -58 -40
-130 -49 -160 -10 -30 -21 -67 -24 -82 -4 -16 -12 -28 -20 -28 -7 0 -39 42
-70 93 -30 50 -100 164 -154 252 l-98 160 -107 3 c-81 2 -108 -1 -111 -10z"/>
<path d="M20556 10690 c-95 -37 -143 -97 -185 -234 -36 -117 -25 -177 39 -208
30 -14 69 -17 265 -18 192 0 234 -3 253 -16 31 -22 27 -51 -12 -90 l-34 -34
-295 0 c-184 0 -298 -4 -302 -10 -6 -10 -65 -170 -65 -177 0 -1 154 -3 343 -3
388 0 407 3 476 70 63 62 111 182 111 281 0 45 -4 59 -22 76 -45 40 -85 46
-322 52 -201 5 -230 8 -240 23 -16 26 4 69 43 95 33 23 39 23 313 23 l279 0
29 68 c17 37 35 75 40 85 6 10 8 22 5 27 -4 6 -136 10 -338 9 -297 -1 -337 -3
-381 -19z"/>
<path d="M21413 10678 c-6 -18 -26 -80 -43 -138 -18 -58 -45 -145 -60 -195
-16 -49 -50 -157 -75 -240 -25 -82 -51 -161 -56 -174 -5 -13 -7 -26 -5 -29 10
-9 180 -1 193 10 7 6 13 20 13 32 0 12 12 34 28 48 47 43 239 178 253 178 11
0 69 -85 180 -262 8 -13 263 -12 267 1 2 5 -11 29 -28 53 -102 138 -237 343
-234 352 3 6 37 34 76 61 80 57 115 82 302 219 75 55 136 103 136 108 0 4 -58
8 -128 8 l-129 0 -306 -230 c-169 -126 -309 -225 -312 -219 -4 5 3 35 14 67
10 31 29 91 42 132 12 41 32 109 45 150 13 41 24 80 24 87 0 10 -24 13 -93 13
l-93 0 -11 -32z"/>
<path d="M16400 10663 c0 -22 2 -25 10 -13 13 20 13 40 0 40 -5 0 -10 -12 -10
-27z"/>
<path d="M16380 10598 c0 -25 3 -29 10 -18 13 20 13 50 0 50 -5 0 -10 -15 -10
-32z"/>
<path d="M16360 10534 c0 -14 4 -23 10 -19 6 3 10 15 10 26 0 10 -4 19 -10 19
-5 0 -10 -12 -10 -26z"/>
<path d="M16340 10463 c0 -22 2 -25 10 -13 13 20 13 40 0 40 -5 0 -10 -12 -10
-27z"/>
<path d="M16321 10393 c0 -25 1 -26 9 -8 12 27 12 35 0 35 -5 0 -10 -12 -9
-27z"/>
<path d="M16298 10335 c-3 -14 -2 -28 2 -30 11 -7 21 38 11 48 -5 5 -11 -3
-13 -18z"/>
<path d="M16280 10283 c0 -6 -3 -18 -6 -27 -3 -9 -2 -16 4 -16 15 0 24 32 12
44 -7 7 -10 7 -10 -1z"/>
<path d="M16246 10160 c-10 -34 -16 -63 -13 -67 4 -3 8 0 10 8 5 18 28 90 34
107 3 6 1 12 -3 12 -5 0 -17 -27 -28 -60z"/>
<path d="M16217 10073 c-11 -10 -8 -43 3 -43 6 0 10 11 10 25 0 26 -2 29 -13
18z"/>
<path d="M16197 10003 c-11 -10 -8 -43 3 -43 6 0 10 11 10 25 0 26 -2 29 -13
18z"/>
<path d="M16177 9937 c-11 -29 -9 -53 4 -40 6 6 9 21 7 34 -3 21 -4 22 -11 6z"/>
<path d="M16157 9867 c-11 -29 -9 -53 4 -40 6 6 9 21 7 34 -3 21 -4 22 -11 6z"/>
<path d="M16137 9803 c-11 -10 -8 -43 3 -43 6 0 10 11 10 25 0 26 -2 29 -13
18z"/>
<path d="M16118 9734 c-5 -4 -8 -16 -8 -28 0 -14 3 -17 11 -9 6 6 9 19 7 28
-1 9 -6 13 -10 9z"/>
<path d="M16098 9674 c-5 -4 -8 -19 -8 -33 0 -18 3 -22 11 -14 6 6 9 21 7 33
-1 12 -6 18 -10 14z"/>
<path d="M16078 9604 c-5 -4 -8 -19 -8 -33 0 -18 3 -22 11 -14 6 6 9 21 7 33
-1 12 -6 18 -10 14z"/>
<path d="M16057 9533 c-11 -10 -8 -43 3 -43 6 0 10 11 10 25 0 26 -2 29 -13
18z"/>
<path d="M16030 9444 c0 -14 4 -23 10 -19 6 3 10 15 10 26 0 10 -4 19 -10 19
-5 0 -10 -12 -10 -26z"/>
<path d="M17060 9406 c-117 -38 -176 -115 -217 -280 -22 -91 -10 -133 49 -166
39 -22 54 -24 281 -29 213 -5 241 -8 251 -23 14 -23 -16 -81 -50 -97 -17 -7
-122 -11 -313 -11 l-289 0 -36 -92 c-19 -51 -32 -96 -27 -101 4 -4 158 -7 342
-5 321 3 336 4 391 26 86 35 133 96 177 231 37 112 25 168 -43 200 -36 18 -68
20 -273 23 -202 3 -234 5 -249 20 -25 25 -8 76 36 106 34 23 37 23 308 22 218
-2 277 1 287 12 13 15 75 153 75 168 0 15 -655 11 -700 -4z"/>
<path d="M17906 9411 c-10 -16 -178 -554 -193 -617 -26 -110 19 -175 131 -189
29 -4 165 -5 302 -3 235 3 252 5 302 27 56 25 100 69 131 130 44 85 216 640
203 653 -5 5 -47 8 -93 6 l-84 -3 -31 -95 c-17 -52 -41 -129 -54 -170 -13 -41
-35 -113 -50 -160 -15 -47 -31 -98 -34 -113 -4 -16 -18 -40 -31 -53 l-24 -24
-228 2 -228 3 1 35 c1 31 28 128 83 300 10 30 28 89 41 130 12 41 26 85 31 98
19 49 15 52 -80 52 -50 0 -92 -4 -95 -9z"/>
<path d="M18921 9390 c-22 -58 -31 -88 -136 -429 -84 -271 -104 -346 -93 -352
7 -5 48 -9 90 -9 76 0 78 1 93 30 8 16 15 36 15 45 0 8 4 23 9 33 5 9 17 43
26 74 9 32 21 60 25 63 5 3 122 6 262 8 206 3 261 6 296 20 99 38 139 93 192
266 51 163 41 234 -36 266 -30 12 -97 15 -384 15 l-348 0 -11 -30z m580 -170
c10 -6 19 -21 19 -33 0 -34 -38 -130 -57 -144 -12 -10 -76 -13 -235 -13 -210
0 -218 1 -218 20 0 10 4 29 9 42 5 13 15 43 22 68 7 25 19 51 28 58 19 15 402
17 432 2z"/>
<path d="M19887 9403 c-3 -10 -14 -47 -25 -83 -11 -36 -43 -139 -71 -230 -29
-91 -70 -223 -92 -295 -22 -71 -44 -140 -50 -153 -5 -13 -7 -28 -4 -33 4 -5
164 -9 385 -9 331 0 381 2 394 16 9 8 16 23 16 32 0 10 9 42 20 72 11 30 18
61 15 68 -3 9 -71 12 -290 12 l-287 0 7 32 c4 18 13 48 20 68 l12 35 288 5
288 5 18 60 c11 32 18 63 16 68 -2 6 -115 9 -275 9 -223 -1 -274 1 -278 12 -6
16 21 103 38 124 9 10 72 12 297 11 l286 -1 28 83 c15 45 25 89 23 96 -4 10
-80 13 -390 13 -357 0 -384 -1 -389 -17z"/>
<path d="M20797 9413 c-6 -11 -140 -434 -198 -628 -12 -38 -25 -77 -29 -85 -4
-9 -11 -35 -15 -58 l-7 -42 84 0 c45 0 88 4 94 8 6 4 29 61 50 127 l40 120
107 3 107 3 81 -123 c45 -68 86 -126 92 -130 16 -10 246 -8 252 2 3 5 -17 39
-44 77 -28 37 -64 87 -81 111 -38 53 -34 72 17 72 131 2 208 85 268 290 29
100 32 170 9 206 -34 51 -56 54 -455 54 -202 0 -370 -3 -372 -7z m614 -194
c17 -9 19 -17 14 -51 -9 -50 -32 -107 -53 -130 -14 -16 -39 -18 -253 -18 -142
0 -240 4 -244 10 -6 9 36 144 56 181 9 18 26 19 235 19 142 0 233 -4 245 -11z"/>
<path d="M16018 9404 c-5 -4 -8 -19 -8 -33 0 -18 3 -22 11 -14 6 6 9 21 7 33
-1 12 -6 18 -10 14z"/>
<path d="M15998 9334 c-5 -4 -8 -19 -8 -33 0 -18 3 -22 11 -14 6 6 9 21 7 33
-1 12 -6 18 -10 14z"/>
<path d="M15978 9264 c-5 -4 -8 -16 -8 -28 0 -14 3 -17 11 -9 6 6 9 19 7 28
-1 9 -6 13 -10 9z"/>
<path d="M15950 9172 c0 -15 -5 -33 -11 -39 -6 -6 -9 -21 -7 -34 2 -19 7 -13
21 28 20 60 21 73 7 73 -5 0 -10 -13 -10 -28z"/>
<path d="M15918 9064 c-5 -4 -8 -19 -8 -33 0 -18 3 -22 11 -14 6 6 9 21 7 33
-1 12 -6 18 -10 14z"/>
<path d="M15898 8994 c-5 -4 -8 -19 -8 -33 1 -23 2 -24 11 -8 11 19 9 53 -3
41z"/>
<path d="M15871 8898 c0 -28 2 -30 9 -13 12 28 12 45 0 45 -5 0 -10 -15 -9
-32z"/>
<path d="M15850 8835 c0 -15 4 -24 10 -20 6 3 10 12 10 20 0 8 -4 17 -10 20
-6 4 -10 -5 -10 -20z"/>
<path d="M15827 8768 c-4 -12 -4 -24 -1 -27 6 -7 24 20 24 37 0 21 -17 13 -23
-10z"/>
<path d="M15806 8705 c-8 -23 -8 -35 3 -35 13 0 23 32 13 42 -6 6 -12 3 -16
-7z"/>
<path d="M15786 8633 c-4 -9 -3 -20 2 -25 6 -6 12 -1 15 11 6 25 -8 38 -17 14z"/>
<path d="M15768 8570 c-7 -24 -3 -38 8 -28 3 4 4 17 2 30 l-3 23 -7 -25z"/>
<path d="M15746 8502 c-4 -13 -5 -26 -2 -29 10 -11 18 4 14 29 l-4 23 -8 -23z"/>
<path d="M15727 8443 c-11 -10 -8 -43 3 -43 6 0 10 11 10 25 0 26 -2 29 -13
18z"/>
<path d="M15707 8373 c-11 -10 -8 -43 3 -43 6 0 10 11 10 25 0 26 -2 29 -13
18z"/>
<path d="M15686 8302 c-4 -13 -5 -26 -2 -29 10 -11 18 4 14 29 l-4 23 -8 -23z"/>
<path d="M15667 8243 c-11 -10 -8 -43 3 -43 6 0 10 11 10 25 0 26 -2 29 -13
18z"/>
<path d="M15647 8173 c-11 -10 -8 -43 3 -43 6 0 10 11 10 25 0 26 -2 29 -13
18z"/>
<path d="M16565 8121 c-6 -11 -52 -152 -84 -261 -12 -41 -26 -86 -31 -100 -5
-14 -32 -99 -60 -190 -28 -91 -57 -184 -65 -207 -7 -23 -11 -44 -7 -47 8 -9
165 -7 180 2 9 6 72 197 72 219 0 1 7 9 16 17 12 12 38 16 115 16 l99 0 81
-122 c45 -68 86 -126 93 -130 15 -10 244 -10 250 0 3 5 -31 58 -74 118 -44 60
-80 114 -80 121 0 13 16 19 81 28 99 13 168 88 219 240 36 106 47 208 28 245
-30 57 -49 59 -455 60 -224 0 -374 -4 -378 -9z m627 -231 c-4 -58 -32 -130
-56 -146 -19 -12 -64 -14 -257 -12 -269 3 -247 -9 -210 113 11 39 27 75 34 80
9 6 101 8 253 5 l239 -5 -3 -35z"/>
<path d="M17914 8082 c-22 -26 -123 -146 -224 -267 -334 -399 -394 -470 -402
-473 -4 -2 -8 -10 -8 -18 0 -11 21 -14 105 -14 l104 0 52 63 c28 34 62 74 75
90 l24 27 215 0 c247 0 221 12 247 -110 l13 -65 99 -3 c55 -1 103 1 108 6 8 8
-7 86 -57 307 -7 33 -32 150 -55 260 -23 110 -45 210 -50 223 -9 21 -15 22
-107 22 l-98 0 -41 -48z m98 -213 c4 -24 12 -66 17 -94 6 -27 14 -67 17 -87
l7 -38 -142 0 c-77 0 -141 3 -141 6 0 14 215 264 224 261 6 -2 14 -23 18 -48z"/>
<path d="M18656 8098 c-8 -18 -24 -67 -36 -108 -13 -41 -36 -115 -52 -165 -15
-49 -32 -103 -37 -120 -43 -140 -76 -249 -92 -299 -34 -107 -73 -97 363 -94
l381 3 29 85 c15 47 26 91 23 97 -3 10 -69 13 -285 13 -154 0 -280 3 -280 8 0
9 -8 -18 144 472 20 63 36 121 36 128 0 9 -25 12 -90 12 l-90 0 -14 -32z"/>
<path d="M19495 8038 c-15 -51 -43 -142 -62 -203 -19 -60 -55 -175 -79 -255
-25 -80 -54 -171 -64 -203 -14 -43 -16 -59 -7 -63 7 -2 181 -3 387 -2 l374 3
29 84 c15 46 26 90 23 97 -4 11 -59 14 -286 14 -156 0 -280 4 -280 9 0 10 21
79 60 201 16 47 45 139 65 205 20 66 40 133 46 149 18 55 17 56 -84 56 l-93 0
-29 -92z"/>
<path d="M20140 8122 c0 -5 43 -121 95 -257 52 -136 95 -256 95 -266 0 -10
-18 -75 -40 -144 -22 -70 -38 -131 -35 -136 4 -5 44 -9 91 -9 l84 0 15 33 c8
17 30 84 50 146 l36 115 267 263 267 262 -109 1 -110 0 -177 -177 c-170 -168
-179 -175 -188 -152 -5 13 -21 56 -36 94 -15 39 -41 106 -59 150 l-31 80 -108
3 c-59 1 -107 -1 -107 -6z"/>
<path d="M15627 8107 c-11 -29 -9 -53 4 -40 6 6 9 21 7 34 -3 21 -4 22 -11 6z"/>
<path d="M15608 8044 c-5 -4 -8 -19 -8 -33 0 -18 3 -22 11 -14 6 6 9 21 7 33
-1 12 -6 18 -10 14z"/>
<path d="M15587 7973 c-11 -10 -8 -43 3 -43 6 0 10 11 10 25 0 26 -2 29 -13
18z"/>
<path d="M15568 7904 c-5 -4 -8 -19 -8 -33 0 -18 3 -22 11 -14 6 6 9 21 7 33
-1 12 -6 18 -10 14z"/>
<path d="M15547 7833 c-4 -3 -7 -16 -7 -28 0 -11 -5 -26 -11 -32 -6 -6 -9 -21
-7 -34 5 -26 7 -23 28 49 13 40 11 60 -3 45z"/>
<path d="M15508 7704 c-5 -4 -8 -19 -8 -33 0 -18 3 -22 11 -14 6 6 9 21 7 33
-1 12 -6 18 -10 14z"/>
<path d="M15488 7634 c-5 -4 -8 -19 -8 -33 1 -23 2 -24 11 -8 11 19 9 53 -3
41z"/>
<path d="M15468 7564 c-5 -4 -8 -19 -8 -33 0 -18 3 -22 11 -14 6 6 9 21 7 33
-1 12 -6 18 -10 14z"/>
<path d="M15440 7474 c0 -14 4 -23 10 -19 6 3 10 15 10 26 0 10 -4 19 -10 19
-5 0 -10 -12 -10 -26z"/>
<path d="M15420 7404 c0 -14 4 -23 10 -19 6 3 10 15 10 26 0 10 -4 19 -10 19
-5 0 -10 -12 -10 -26z"/>
<path d="M15400 7333 c0 -22 2 -25 10 -13 13 20 13 40 0 40 -5 0 -10 -12 -10
-27z"/>
<path d="M15388 7294 c-5 -4 -8 -19 -8 -33 1 -23 2 -24 11 -8 11 19 9 53 -3
41z"/>
<path d="M15360 7204 c0 -14 4 -23 10 -19 6 3 10 15 10 26 0 10 -4 19 -10 19
-5 0 -10 -12 -10 -26z"/>
<path d="M15340 7135 c1 -26 2 -28 11 -12 8 14 8 22 0 30 -8 8 -11 3 -11 -18z"/>
<path d="M15320 7063 c0 -22 2 -25 10 -13 13 20 13 40 0 40 -5 0 -10 -12 -10
-27z"/>
<path d="M15302 7013 c-6 -11 -7 -25 -3 -32 6 -9 10 -5 15 14 9 33 1 44 -12
18z"/>
<path d="M15276 6945 c-9 -24 5 -41 16 -20 7 11 7 20 0 27 -6 6 -12 3 -16 -7z"/>
<path d="M15256 6875 c-8 -23 -8 -35 3 -35 13 0 23 32 13 42 -6 6 -12 3 -16
-7z"/>
<path d="M15236 6804 c-8 -22 -7 -34 3 -34 12 0 21 39 11 45 -4 3 -11 -2 -14
-11z"/>
<path d="M15216 6737 c-5 -15 -6 -31 -2 -34 11 -11 18 5 14 34 l-4 28 -8 -28z"/>
<path d="M15197 6673 c-11 -10 -8 -43 3 -43 6 0 10 11 10 25 0 26 -2 29 -13
18z"/>
<path d="M15177 6607 c-11 -29 -9 -53 4 -40 6 6 9 21 7 34 -3 21 -4 22 -11 6z"/>
<path d="M15157 6537 c-11 -29 -9 -53 4 -40 6 6 9 21 7 34 -3 21 -4 22 -11 6z"/>
<path d="M15137 6473 c-11 -10 -8 -43 3 -43 6 0 10 11 10 25 0 26 -2 29 -13
18z"/>
<path d="M15118 6404 c-5 -4 -8 -16 -8 -28 0 -14 3 -17 11 -9 6 6 9 19 7 28
-1 9 -6 13 -10 9z"/>
<path d="M15098 6344 c-5 -4 -8 -19 -8 -33 0 -18 3 -22 11 -14 6 6 9 21 7 33
-1 12 -6 18 -10 14z"/>
<path d="M15078 6274 c-5 -4 -8 -19 -8 -33 0 -18 3 -22 11 -14 6 6 9 21 7 33
-1 12 -6 18 -10 14z"/>
<path d="M15058 6204 c-5 -4 -8 -19 -8 -33 0 -18 3 -22 11 -14 6 6 9 21 7 33
-1 12 -6 18 -10 14z"/>
<path d="M15038 6134 c-5 -4 -8 -16 -8 -28 0 -14 3 -17 11 -9 6 6 9 19 7 28
-1 9 -6 13 -10 9z"/>
<path d="M15010 6044 c0 -14 4 -23 10 -19 6 3 10 15 10 26 0 10 -4 19 -10 19
-5 0 -10 -12 -10 -26z"/>
<path d="M14998 6004 c-5 -4 -8 -19 -8 -33 0 -18 3 -22 11 -14 6 6 9 21 7 33
-1 12 -6 18 -10 14z"/>
<path d="M14978 5934 c-5 -4 -8 -19 -8 -33 0 -18 3 -22 11 -14 6 6 9 21 7 33
-1 12 -6 18 -10 14z"/>
<path d="M18897 5903 c-4 -3 -7 -13 -7 -21 0 -12 3 -12 15 -2 8 7 15 16 15 21
0 11 -14 12 -23 2z"/>
<path d="M18860 5880 c-13 -8 -12 -10 3 -10 9 0 17 5 17 10 0 12 -1 12 -20 0z"/>
<path d="M18920 5868 c0 -9 5 -20 10 -23 6 -3 10 -15 10 -26 0 -10 5 -19 10
-19 6 0 10 -12 10 -27 0 -19 3 -24 11 -16 7 7 2 27 -20 69 -16 33 -30 51 -31
42z"/>
<path d="M14950 5844 c0 -14 4 -23 10 -19 6 3 10 15 10 26 0 10 -4 19 -10 19
-5 0 -10 -12 -10 -26z"/>
<path d="M18808 5848 c9 -9 15 -9 24 0 9 9 7 12 -12 12 -19 0 -21 -3 -12 -12z"/>
<path d="M18770 5830 c0 -5 4 -10 9 -10 6 0 13 5 16 10 3 6 -1 10 -9 10 -9 0
-16 -4 -16 -10z"/>
<path d="M18735 5819 c-10 -15 3 -25 16 -12 7 7 7 13 1 17 -6 3 -14 1 -17 -5z"/>
<path d="M14930 5774 c0 -14 4 -23 10 -19 6 3 10 15 10 26 0 10 -4 19 -10 19
-5 0 -10 -12 -10 -26z"/>
<path d="M18700 5789 c0 -5 5 -7 10 -4 6 3 10 8 10 11 0 2 -4 4 -10 4 -5 0
-10 -5 -10 -11z"/>
<path d="M18660 5765 c-8 -10 -10 -19 -4 -25 5 -5 14 1 21 16 12 27 2 32 -17
9z"/>
<path d="M18980 5733 c0 -12 5 -25 10 -28 13 -8 13 15 0 35 -8 12 -10 11 -10
-7z"/>
<path d="M14918 5734 c-5 -4 -8 -19 -8 -33 1 -23 2 -24 11 -8 11 19 9 53 -3
41z"/>
<path d="M18681 5708 c-1 -16 4 -28 9 -28 12 0 12 8 0 35 -8 18 -9 17 -9 -7z"/>
<path d="M18995 5668 c-6 -12 -23 -29 -40 -38 -40 -20 -39 -19 -32 -26 12 -12
97 46 97 66 0 27 -13 25 -25 -2z"/>
<path d="M14898 5664 c-5 -4 -8 -19 -8 -33 1 -23 2 -24 11 -8 11 19 9 53 -3
41z"/>
<path d="M18697 5664 c-8 -8 3 -34 14 -34 11 0 12 27 0 34 -4 3 -11 3 -14 0z"/>
<path d="M18720 5610 c0 -6 4 -18 9 -28 5 -9 12 -25 15 -34 3 -10 11 -18 18
-18 10 0 10 2 0 9 -7 4 -12 12 -11 17 3 11 -19 64 -26 64 -3 0 -5 -5 -5 -10z"/>
<path d="M14870 5574 c0 -14 4 -23 10 -19 6 3 10 15 10 26 0 10 -4 19 -10 19
-5 0 -10 -12 -10 -26z"/>
<path d="M18872 5585 c-12 -7 -33 -22 -46 -34 -12 -12 -25 -18 -29 -15 -7 8
-37 -20 -37 -35 0 -5 18 2 40 16 22 15 40 30 40 35 0 4 9 8 20 8 11 0 20 5 20
10 0 6 7 10 15 10 8 0 15 5 15 10 0 13 -9 11 -38 -5z"/>
<path d="M18346 5555 c4 -8 10 -15 15 -15 5 0 9 7 9 15 0 8 -7 15 -15 15 -9 0
-12 -6 -9 -15z"/>
<path d="M18300 5540 c0 -5 6 -10 14 -10 8 0 18 5 21 10 3 6 -3 10 -14 10 -12
0 -21 -4 -21 -10z"/>
<path d="M14850 5503 c0 -22 2 -25 10 -13 13 20 13 40 0 40 -5 0 -10 -12 -10
-27z"/>
<path d="M18260 5520 c0 -5 7 -10 15 -10 8 0 15 5 15 10 0 6 -7 10 -15 10 -8
0 -15 -4 -15 -10z"/>
<path d="M18376 5500 c8 -42 19 -66 27 -53 3 5 -3 27 -14 48 l-19 40 6 -35z"/>
<path d="M16946 5501 c-7 -10 23 -20 42 -14 6 3 12 9 12 14 0 12 -47 12 -54 0z"/>
<path d="M18210 5500 c0 -5 12 -10 26 -10 14 0 23 4 19 10 -3 6 -15 10 -26 10
-10 0 -19 -4 -19 -10z"/>
<path d="M16860 5480 c0 -5 -9 -10 -19 -10 -11 0 -23 -5 -27 -11 -8 -13 45 -4
91 16 l30 13 -37 1 c-21 1 -38 -3 -38 -9z"/>
<path d="M17372 5479 c2 -6 7 -10 11 -10 4 1 16 1 27 1 11 0 20 5 20 10 0 6
-14 10 -31 10 -17 0 -29 -5 -27 -11z"/>
<path d="M18155 5480 c3 -5 1 -10 -6 -10 -7 0 -10 -2 -8 -5 8 -7 49 6 49 16 0
5 -9 9 -21 9 -11 0 -17 -4 -14 -10z"/>
<path d="M17000 5461 c0 -12 5 -21 10 -21 6 0 10 6 10 14 0 8 -4 18 -10 21 -5
3 -10 -3 -10 -14z"/>
<path d="M14838 5464 c-5 -4 -8 -19 -8 -33 1 -23 2 -24 11 -8 11 19 9 53 -3
41z"/>
<path d="M17450 5460 c20 -13 93 -13 85 0 -3 6 -27 10 -53 10 -34 0 -43 -3
-32 -10z"/>
<path d="M18090 5460 c0 -5 9 -10 20 -10 11 0 20 5 20 10 0 6 -9 10 -20 10
-11 0 -20 -4 -20 -10z"/>
<path d="M17390 5446 c0 -8 5 -18 10 -21 6 -3 10 3 10 14 0 12 -4 21 -10 21
-5 0 -10 -6 -10 -14z"/>
<path d="M16770 5440 c0 -5 7 -10 16 -10 8 0 12 5 9 10 -3 6 -10 10 -16 10 -5
0 -9 -4 -9 -10z"/>
<path d="M17565 5440 c-14 -6 6 -9 63 -9 80 -1 88 -4 82 -36 -1 -5 4 -4 12 3
9 9 10 17 2 30 -8 13 -27 17 -75 19 -35 1 -73 -2 -84 -7z"/>
<path d="M18727 5437 c-4 -11 0 -13 15 -9 18 4 20 2 15 -18 -4 -16 -3 -20 4
-13 15 15 7 47 -12 51 -9 2 -19 -3 -22 -11z"/>
<path d="M18105 5430 c-4 -6 -3 -16 3 -22 13 -13 23 4 13 21 -7 10 -10 10 -16
1z"/>
<path d="M18410 5411 c0 -17 2 -31 4 -31 8 0 13 51 5 56 -5 3 -9 -9 -9 -25z"/>
<path d="M16720 5411 c-5 -11 -7 -22 -3 -24 10 -5 43 30 36 37 -11 11 -22 6
-33 -13z"/>
<path d="M17020 5416 c0 -9 5 -16 10 -16 6 0 10 4 10 9 0 6 -4 13 -10 16 -5 3
-10 -1 -10 -9z"/>
<path d="M18679 5406 c-13 -12 -31 -26 -39 -29 -12 -4 -11 -6 3 -6 9 -1 26 8
37 19 12 12 25 18 30 15 6 -3 7 1 4 9 -8 20 -7 20 -35 -8z"/>
<path d="M17416 5411 c-4 -7 -5 -15 -2 -18 9 -9 19 4 14 18 -4 11 -6 11 -12 0z"/>
<path d="M18430 5380 c0 -19 3 -21 12 -12 9 9 9 15 0 24 -9 9 -12 7 -12 -12z"/>
<path d="M14806 5374 c-8 -22 4 -40 15 -23 11 18 11 39 0 39 -5 0 -12 -7 -15
-16z"/>
<path d="M17045 5373 c3 -10 9 -30 12 -45 3 -16 9 -28 14 -28 14 0 11 23 -7
58 -16 34 -31 44 -19 15z"/>
<path d="M17730 5377 c0 -7 6 -21 14 -32 7 -11 16 -29 19 -40 3 -13 5 -9 6 13
1 20 -3 31 -9 27 -6 -4 -10 5 -10 19 0 14 -4 26 -10 26 -5 0 -10 -6 -10 -13z"/>
<path d="M18770 5376 c0 -8 5 -18 10 -21 6 -3 10 3 10 14 0 12 -4 21 -10 21
-5 0 -10 -6 -10 -14z"/>
<path d="M17430 5360 c0 -19 3 -21 12 -12 9 9 9 15 0 24 -9 9 -12 7 -12 -12z"/>
<path d="M18130 5370 c1 -18 29 -70 30 -54 0 7 -7 25 -15 40 -8 16 -15 22 -15
14z"/>
<path d="M16741 5354 c0 -11 3 -14 6 -6 3 7 2 16 -1 19 -3 4 -6 -2 -5 -13z"/>
<path d="M18572 5340 c-12 -11 -30 -20 -42 -20 -15 0 -20 -7 -20 -24 0 -14 5
-28 10 -31 6 -3 10 -15 10 -25 0 -10 4 -21 9 -24 15 -9 21 22 8 36 -20 20 -28
48 -14 48 18 1 93 60 76 60 -9 0 -25 -9 -37 -20z"/>
<path d="M17691 5334 c0 -11 3 -14 6 -6 3 7 2 16 -1 19 -3 4 -6 -2 -5 -13z"/>
<path d="M18448 5330 c-2 -18 -12 -26 -38 -33 -43 -11 -63 -27 -32 -27 12 0
22 5 22 10 0 6 11 10 25 10 14 0 25 4 25 9 0 5 7 11 16 13 13 3 13 5 0 23 -14
19 -14 19 -18 -5z"/>
<path d="M19146 5341 c-4 -7 -5 -15 -2 -18 9 -9 19 4 14 18 -4 11 -6 11 -12 0z"/>
<path d="M18802 5320 c0 -14 2 -19 5 -12 2 6 2 18 0 25 -3 6 -5 1 -5 -13z"/>
<path d="M14771 5252 c-12 -42 -25 -85 -28 -94 -3 -10 0 -18 6 -18 6 0 11 8
11 17 0 16 14 65 30 108 16 41 19 54 12 59 -4 2 -18 -30 -31 -72z"/>
<path d="M16760 5312 c0 -12 4 -22 9 -22 10 0 9 26 -2 36 -4 4 -7 -2 -7 -14z"/>
<path d="M19172 5310 c-1 -14 5 -36 13 -50 13 -23 14 -23 15 -4 0 11 -4 24 -9
30 -5 5 -11 18 -14 29 -4 16 -5 15 -5 -5z"/>
<path d="M17450 5306 c0 -8 5 -18 10 -21 6 -3 10 3 10 14 0 12 -4 21 -10 21
-5 0 -10 -6 -10 -14z"/>
<path d="M18171 5293 c-1 -17 4 -35 9 -38 6 -3 10 -17 10 -31 0 -24 14 -32 25
-14 3 6 1 10 -5 10 -7 0 -10 7 -6 15 3 8 1 15 -3 15 -5 0 -13 17 -19 38 l-10
37 -1 -32z"/>
<path d="M19100 5311 c0 -5 -10 -11 -22 -13 -22 -3 -22 -4 -3 -9 12 -3 28 2
39 13 17 16 18 18 3 18 -9 0 -17 -4 -17 -9z"/>
<path d="M17782 5280 c0 -14 2 -19 5 -12 2 6 2 18 0 25 -3 6 -5 1 -5 -13z"/>
<path d="M18822 5280 c0 -14 2 -19 5 -12 2 6 2 18 0 25 -3 6 -5 1 -5 -13z"/>
<path d="M17080 5276 c0 -8 -6 -16 -12 -19 -7 -2 0 -6 15 -9 22 -4 27 -2 23 9
-3 8 -6 19 -6 24 0 5 -4 9 -10 9 -5 0 -10 -6 -10 -14z"/>
<path d="M16780 5266 c0 -9 5 -16 10 -16 6 0 10 4 10 9 0 6 -4 13 -10 16 -5 3
-10 -1 -10 -9z"/>
<path d="M17477 5274 c-4 -4 -7 -15 -7 -25 0 -14 11 -18 65 -21 36 -1 65 0 65
5 0 5 -58 10 -97 6 -5 0 -10 9 -13 21 -3 12 -8 18 -13 14z"/>
<path d="M19013 5266 c-13 -6 -23 -14 -23 -18 0 -5 -7 -8 -15 -8 -8 0 -15 -5
-15 -11 0 -6 6 -8 13 -5 6 3 20 9 30 12 9 4 17 10 17 15 0 5 6 9 14 9 8 0 18
5 21 10 8 13 -13 11 -42 -4z"/>
<path d="M18325 5260 c-3 -5 1 -10 9 -10 9 0 16 5 16 10 0 6 -4 10 -9 10 -6 0
-13 -4 -16 -10z"/>
<path d="M17790 5235 c0 -8 5 -15 10 -15 6 0 10 7 10 15 0 8 -4 15 -10 15 -5
0 -10 -7 -10 -15z"/>
<path d="M18842 5226 c9 -22 7 -28 -18 -50 -16 -14 -37 -28 -46 -31 -19 -7
-25 -25 -8 -25 6 0 10 5 10 10 0 6 7 10 15 10 8 0 15 5 15 10 0 6 7 10 15 10
8 0 15 5 15 10 0 6 16 10 36 10 21 0 33 4 29 10 -3 6 -14 10 -25 10 -11 0 -20
10 -24 25 -4 14 -11 25 -16 25 -6 0 -5 -10 2 -24z"/>
<path d="M16800 5223 c0 -12 5 -25 10 -28 6 -3 10 -14 10 -25 0 -26 23 -31 51
-9 13 10 31 19 40 19 9 0 22 7 29 15 7 8 17 12 23 8 5 -3 16 2 23 12 8 10 21
16 32 13 11 -3 26 -2 33 3 10 6 4 9 -18 9 -18 0 -63 -14 -100 -32 -38 -18 -71
-31 -75 -30 -5 1 -8 -2 -8 -8 0 -5 -4 -10 -10 -10 -5 0 -10 6 -10 14 0 7 -7
27 -15 42 -13 26 -15 27 -15 7z"/>
<path d="M17200 5230 c0 -5 -12 -10 -27 -10 -20 0 -24 -3 -14 -9 7 -5 11 -14
7 -19 -4 -6 2 -16 13 -22 12 -6 18 -16 15 -25 -4 -8 1 -26 10 -40 16 -25 18
-25 154 -24 101 1 128 3 102 10 -19 5 -76 8 -125 7 -97 -2 -144 14 -132 46 3
8 -1 20 -9 26 -32 27 -10 50 47 50 16 0 29 5 29 10 0 6 -16 10 -35 10 -19 0
-35 -4 -35 -10z"/>
<path d="M18253 5229 c11 -7 23 -7 35 0 14 9 11 10 -18 10 -29 0 -32 -1 -17
-10z"/>
<path d="M19207 5210 c3 -11 7 -20 9 -20 2 0 4 9 4 20 0 11 -4 20 -9 20 -5 0
-7 -9 -4 -20z"/>
<path d="M17340 5209 c36 -5 75 -8 86 -6 23 4 44 -20 44 -50 1 -16 2 -16 12 1
8 15 7 22 -6 31 -9 7 -16 17 -16 24 0 7 -29 11 -92 10 l-93 -2 65 -8z"/>
<path d="M17625 5210 c7 -11 85 -9 85 3 0 4 -21 7 -46 7 -27 0 -43 -4 -39 -10z"/>
<path d="M18930 5209 c0 -5 5 -7 10 -4 6 3 10 8 10 11 0 2 -4 4 -10 4 -5 0
-10 -5 -10 -11z"/>
<path d="M17745 5201 c-12 -11 11 -21 51 -21 32 0 44 4 42 12 -4 11 -83 19
-93 9z"/>
<path d="M18555 5200 c-4 -6 -3 -16 3 -22 6 -6 12 -6 17 2 4 6 3 16 -3 22 -6
6 -12 6 -17 -2z"/>
<path d="M19228 5184 c-4 -6 -2 -25 5 -43 12 -33 27 -42 27 -16 0 8 -4 15 -9
15 -5 0 -11 12 -13 28 -2 15 -6 22 -10 16z"/>
<path d="M18114 5169 c-5 -8 4 -10 29 -7 29 3 37 0 42 -17 4 -13 8 -16 12 -7
13 32 -64 61 -83 31z"/>
<path d="M18917 5149 c7 -27 23 -34 23 -11 0 11 -6 22 -14 25 -10 4 -12 0 -9
-14z"/>
<path d="M17880 5142 c0 -9 6 -12 16 -8 9 3 54 6 101 6 48 0 83 3 79 8 -4 4
-50 7 -102 8 -75 0 -94 -3 -94 -14z"/>
<path d="M18570 5146 c0 -8 5 -18 10 -21 6 -3 10 3 10 14 0 12 -4 21 -10 21
-5 0 -10 -6 -10 -14z"/>
<path d="M17495 5115 c8 -34 10 -38 23 -34 5 2 0 18 -10 34 l-20 30 7 -30z"/>
<path d="M14727 5113 c-11 -10 -8 -43 3 -43 6 0 10 11 10 25 0 26 -2 29 -13
18z"/>
<path d="M17902 5103 c3 -16 20 -18 161 -21 138 -2 157 -1 157 13 0 10 -5 13
-12 9 -7 -5 -75 -8 -150 -9 -104 0 -138 3 -138 13 0 6 -5 12 -11 12 -6 0 -9
-8 -7 -17z"/>
<path d="M18720 5110 c0 -5 -10 -10 -22 -10 -13 0 -30 -5 -38 -10 -11 -7 -5
-10 23 -10 20 0 37 5 37 10 0 6 7 10 16 10 8 0 12 5 9 10 -3 6 -10 10 -16 10
-5 0 -9 -4 -9 -10z"/>
<path d="M18596 5097 c3 -8 11 -14 19 -14 20 0 19 13 -1 21 -22 8 -24 8 -18
-7z"/>
<path d="M18940 5096 c0 -13 11 -16 50 -16 28 0 50 5 50 10 0 6 -15 10 -34 10
-19 0 -41 3 -50 6 -11 4 -16 1 -16 -10z"/>
<path d="M19260 5085 c0 -9 -14 -17 -40 -21 -22 -4 -37 -10 -34 -15 7 -12 44
-11 44 1 0 6 8 10 19 10 21 0 45 23 34 33 -11 12 -23 8 -23 -8z"/>
<path d="M14707 5043 c-11 -10 -8 -43 3 -43 6 0 10 11 10 25 0 26 -2 29 -13
18z"/>
<path d="M19147 5030 c-8 -30 -8 -30 23 -13 17 9 20 13 8 13 -9 0 -18 6 -20
12 -3 7 -7 2 -11 -12z"/>
<path d="M15782 4997 c-6 -7 -23 -46 -37 -87 -14 -41 -30 -84 -35 -95 -5 -11
-18 -49 -30 -85 -11 -36 -25 -80 -31 -98 -7 -21 -7 -38 -2 -43 5 -5 61 -8 124
-7 l114 3 18 37 c10 21 36 86 57 145 53 153 57 160 75 167 9 3 54 6 101 6 78
0 85 -2 100 -25 15 -23 15 -28 -4 -78 -11 -28 -26 -68 -33 -88 -25 -75 -38
-84 -136 -88 -48 -1 -94 -8 -100 -13 -7 -6 -13 -23 -13 -39 l0 -29 183 1 c100
1 193 4 207 8 28 8 71 66 89 120 7 20 21 59 31 86 45 124 51 157 36 180 -21
31 -63 35 -406 35 -230 0 -300 -3 -308 -13z"/>
<path d="M16660 4992 c-39 -21 -60 -57 -101 -172 -15 -41 -39 -106 -53 -145
-14 -38 -26 -76 -26 -82 0 -18 233 -18 247 0 6 6 29 66 53 132 53 147 74 190
97 200 10 4 52 9 93 12 64 5 78 3 99 -14 l24 -20 -18 -47 c-10 -25 -23 -50
-29 -53 -6 -4 -47 -6 -91 -5 -44 2 -86 -1 -92 -6 -7 -4 -16 -22 -19 -40 l-6
-32 85 0 c47 0 88 -4 91 -9 3 -5 -1 -28 -9 -51 -29 -81 -30 -80 100 -80 134 0
115 -18 181 167 57 156 61 206 21 237 -27 20 -41 21 -320 24 -268 2 -295 1
-327 -16z"/>
<path d="M17504 5000 c-38 -12 -55 -31 -82 -97 -50 -118 -32 -133 161 -133 81
0 147 3 147 8 0 4 -15 14 -33 22 -44 20 -50 74 -13 109 20 19 39 24 110 28
105 7 120 -1 110 -61 -7 -45 -17 -56 -51 -56 -27 0 -27 0 -8 -36 15 -30 11
-64 -12 -101 -18 -27 -96 -39 -174 -26 -52 8 -54 9 -59 43 l-5 35 -111 3
c-109 3 -112 2 -127 -22 -9 -14 -19 -42 -23 -64 -5 -35 -3 -42 19 -57 22 -14
63 -16 338 -15 297 0 314 1 346 21 18 11 33 25 33 30 0 5 9 28 19 52 11 23 22
56 26 74 9 44 -21 63 -105 64 -60 2 -58 3 36 11 l100 10 17 39 c9 22 17 51 17
67 0 58 8 57 -332 59 -177 1 -326 -2 -344 -7z"/>
<path d="M18292 4998 c-21 -26 -122 -316 -122 -351 0 -31 5 -39 33 -54 27 -15
69 -18 288 -21 304 -5 357 2 406 55 18 19 33 41 33 49 0 8 4 22 9 32 5 9 19
44 31 77 12 33 26 69 30 80 40 102 49 128 44 136 -9 15 -240 11 -253 -5 -6 -7
-33 -78 -61 -157 -61 -179 -71 -189 -182 -189 -79 0 -108 13 -108 47 0 18 55
176 70 205 6 10 10 26 10 36 0 10 5 23 11 29 7 7 9 19 6 27 -5 13 -26 16 -120
16 -80 0 -118 -4 -125 -12z"/>
<path d="M14687 4977 c-11 -29 -9 -53 4 -40 6 6 9 21 7 34 -3 21 -4 22 -11 6z"/>
<path d="M14668 4914 c-5 -4 -8 -19 -8 -33 0 -18 3 -22 11 -14 6 6 9 21 7 33
-1 12 -6 18 -10 14z"/>
<path d="M14647 4843 c-11 -10 -8 -43 3 -43 6 0 10 11 10 25 0 26 -2 29 -13
18z"/>
<path d="M14627 4773 c-11 -10 -8 -43 3 -43 6 0 10 11 10 25 0 26 -2 29 -13
18z"/>
<path d="M19047 4744 c-3 -4 -3 -19 0 -35 4 -22 2 -29 -11 -29 -17 0 -22 -15
-8 -24 11 -7 54 73 46 85 -6 10 -18 12 -27 3z"/>
<path d="M19388 4742 c-16 -2 -28 -8 -28 -14 0 -6 12 -8 29 -5 24 5 31 2 36
-14 5 -16 10 -18 18 -10 17 17 -22 48 -55 43z"/>
<path d="M14607 4707 c-11 -29 -9 -53 4 -40 6 6 9 21 7 34 -3 21 -4 22 -11 6z"/>
<path d="M19310 4710 c0 -5 6 -10 14 -10 8 0 18 5 21 10 3 6 -3 10 -14 10 -12
0 -21 -4 -21 -10z"/>
<path d="M19080 4686 c0 -7 6 -19 14 -26 8 -6 12 -18 9 -26 -3 -8 1 -14 10
-14 10 0 13 7 10 20 -3 11 -9 20 -14 20 -5 0 -9 9 -9 20 0 11 -4 20 -10 20 -5
0 -10 -6 -10 -14z"/>
<path d="M19253 4686 c-13 -6 -23 -14 -23 -18 0 -5 -5 -8 -11 -8 -6 0 -22 -9
-36 -20 -19 -15 -21 -20 -9 -20 9 0 16 3 16 8 0 4 25 18 55 32 30 14 55 28 55
33 0 10 -20 7 -47 -7z"/>
<path d="M19450 4671 c0 -12 5 -21 10 -21 6 0 10 6 10 14 0 8 -4 18 -10 21 -5
3 -10 -3 -10 -14z"/>
<path d="M14587 4643 c-11 -10 -8 -43 3 -43 6 0 10 11 10 25 0 26 -2 29 -13
18z"/>
<path d="M19007 4620 c-3 -11 -1 -20 4 -20 5 0 9 9 9 20 0 11 -2 20 -4 20 -2
0 -6 -9 -9 -20z"/>
<path d="M19470 4620 c0 -19 3 -21 12 -12 9 9 9 15 0 24 -9 9 -12 7 -12 -12z"/>
<path d="M19057 4596 c-14 -13 -32 -26 -39 -29 -9 -4 -9 -6 3 -6 8 -1 24 7 35
17 11 11 26 21 34 24 9 3 10 7 3 11 -6 4 -22 -4 -36 -17z"/>
<path d="M19446 4597 c3 -10 9 -15 12 -12 3 3 0 11 -7 18 -10 9 -11 8 -5 -6z"/>
<path d="M19162 4589 c2 -7 10 -15 17 -17 8 -3 12 1 9 9 -2 7 -10 15 -17 17
-8 3 -12 -1 -9 -9z"/>
<path d="M18980 4576 c0 -8 -4 -16 -9 -18 -5 -1 -3 -9 4 -15 9 -8 16 -9 20 -3
3 6 1 10 -5 10 -8 0 -8 6 0 20 7 14 7 20 0 20 -5 0 -10 -6 -10 -14z"/>
<path d="M19490 4576 c0 -9 5 -16 10 -16 6 0 10 4 10 9 0 6 -4 13 -10 16 -5 3
-10 -1 -10 -9z"/>
<path d="M14567 4573 c-11 -10 -8 -43 3 -43 6 0 10 11 10 25 0 26 -2 29 -13
18z"/>
<path d="M19191 4549 c-1 -19 21 -69 32 -69 12 0 8 17 -7 32 -8 8 -16 23 -19
34 -3 13 -5 14 -6 3z"/>
<path d="M18936 4525 c-16 -8 -37 -15 -47 -15 -23 0 -36 -27 -21 -42 7 -7 16
-4 30 10 11 11 23 18 25 15 3 -2 15 5 27 17 28 28 22 33 -14 15z"/>
<path d="M19508 4510 c-3 -16 -1 -30 3 -30 4 0 15 -3 25 -7 12 -4 15 -2 12 8
-3 8 -10 13 -15 12 -6 -1 -8 9 -5 22 2 14 0 25 -6 25 -5 0 -12 -13 -14 -30z"/>
<path d="M14547 4503 c-11 -10 -8 -43 3 -43 6 0 10 11 10 25 0 26 -2 29 -13
18z"/>
<path d="M17487 4468 c21 -42 27 -49 20 -20 l-5 23 144 -3 c91 -2 144 1 144 7
0 6 -53 9 -145 8 -84 -1 -147 2 -150 7 -16 25 -22 6 -8 -22z"/>
<path d="M18170 4491 c0 -6 5 -13 10 -16 6 -3 10 -15 10 -26 0 -11 4 -18 9
-14 15 9 8 42 -11 54 -10 6 -18 7 -18 2z"/>
<path d="M18465 4489 c-10 -15 3 -25 16 -12 7 7 7 13 1 17 -6 3 -14 1 -17 -5z"/>
<path d="M18320 4479 l-85 -5 98 -2 c53 -1 97 0 97 2 0 9 -30 11 -110 5z"/>
<path d="M18494 4449 c4 -13 11 -37 15 -54 7 -25 9 -27 16 -12 4 11 3 23 -4
30 -6 6 -11 19 -11 28 0 10 -5 21 -12 25 -8 5 -9 0 -4 -17z"/>
<path d="M19450 4463 c-8 -2 -21 -7 -29 -9 -11 -4 -12 -7 -3 -16 9 -9 15 -9
24 0 7 7 20 12 29 12 10 0 21 5 24 10 6 10 -19 12 -45 3z"/>
<path d="M19230 4440 c0 -11 5 -20 10 -20 6 0 10 -10 10 -22 0 -17 3 -19 12
-10 9 9 9 15 0 24 -7 7 -12 20 -12 30 0 10 -4 18 -10 18 -5 0 -10 -9 -10 -20z"/>
<path d="M14528 4444 c-5 -4 -8 -19 -8 -33 0 -18 3 -22 11 -14 6 6 9 21 7 33
-1 12 -6 18 -10 14z"/>
<path d="M17794 4435 c3 -8 9 -22 12 -29 5 -13 -17 -15 -131 -18 -118 -3 -138
-1 -146 13 -4 9 -5 20 -1 24 4 5 1 5 -5 1 -7 -4 -13 -18 -13 -32 l0 -24 165 0
c91 0 165 4 165 9 0 5 -7 14 -15 21 -8 7 -15 21 -15 31 0 11 -5 19 -11 19 -6
0 -8 -7 -5 -15z"/>
<path d="M18210 4411 c0 -11 5 -23 10 -26 6 -3 10 -15 10 -26 0 -10 5 -19 11
-19 7 0 8 7 4 18 -4 9 -10 27 -12 40 -7 29 -23 39 -23 13z"/>
<path d="M18854 4416 c-3 -8 -12 -12 -19 -10 -7 3 -16 1 -19 -5 -4 -7 6 -10
27 -9 28 1 33 4 29 20 -5 22 -11 23 -18 4z"/>
<path d="M19380 4420 c0 -5 4 -10 9 -10 6 0 13 5 16 10 3 6 -1 10 -9 10 -9 0
-16 -4 -16 -10z"/>
<path d="M19322 4395 c-7 -8 -22 -15 -32 -15 -14 0 -20 -7 -20 -22 1 -20 2
-21 13 -8 7 9 29 24 50 33 20 10 37 20 37 22 0 11 -36 3 -48 -10z"/>
<path d="M18775 4380 c-7 -11 -8 -11 23 -14 25 -3 30 9 6 18 -21 8 -22 8 -29
-4z"/>
<path d="M14505 4367 c-4 -10 -5 -21 -1 -24 10 -10 18 4 13 24 -4 17 -4 17
-12 0z"/>
<path d="M18882 4360 c0 -14 2 -19 5 -12 2 6 2 18 0 25 -3 6 -5 1 -5 -13z"/>
<path d="M18530 4350 c0 -11 5 -20 10 -20 6 0 10 9 10 20 0 11 -4 20 -10 20
-5 0 -10 -9 -10 -20z"/>
<path d="M18737 4363 c-12 -11 -8 -23 8 -23 8 0 15 7 15 15 0 16 -12 20 -23 8z"/>
<path d="M17470 4341 c-32 -6 -33 -7 -11 -13 15 -4 32 -1 45 8 22 15 21 15
-34 5z"/>
<path d="M18498 4341 c-1 -6 -58 -11 -125 -12 -68 -1 -123 -6 -123 -11 0 -4
54 -8 121 -8 91 0 124 3 135 14 8 8 10 17 5 20 -5 4 -11 2 -13 -3z"/>
<path d="M18688 4333 c6 -2 18 -2 25 0 6 3 1 5 -13 5 -14 0 -19 -2 -12 -5z"/>
<path d="M17507 4324 c-8 -8 1 -24 14 -24 5 0 9 7 9 15 0 15 -12 20 -23 9z"/>
<path d="M18898 4305 c-6 -30 -2 -32 12 -6 6 11 6 22 1 25 -5 3 -11 -5 -13
-19z"/>
<path d="M17380 4310 c0 -5 11 -10 25 -10 14 0 25 5 25 10 0 6 -11 10 -25 10
-14 0 -25 -4 -25 -10z"/>
<path d="M17900 4300 c0 -11 5 -20 11 -20 6 0 9 6 6 14 -4 10 4 12 38 9 25 -3
45 -1 49 6 5 8 -10 11 -48 11 -49 0 -56 -2 -56 -20z"/>
<path d="M18597 4305 c-4 -8 -2 -17 3 -20 6 -4 10 -2 10 4 0 5 19 14 43 19
l42 10 -46 1 c-33 1 -49 -3 -52 -14z"/>
<path d="M17327 4289 c8 -8 16 -8 30 0 16 9 14 10 -11 11 -22 0 -27 -3 -19
-11z"/>
<path d="M18022 4295 c10 -10 128 -14 128 -5 0 6 -30 10 -67 10 -36 0 -64 -2
-61 -5z"/>
<path d="M17530 4271 c0 -12 5 -21 10 -21 6 0 10 6 10 14 0 8 -4 18 -10 21 -5
3 -10 -3 -10 -14z"/>
<path d="M18215 4280 c-19 -7 -19 -8 -2 -15 19 -8 31 -2 26 13 -2 5 -13 6 -24
2z"/>
<path d="M17278 4268 c9 -9 15 -9 24 0 9 9 7 12 -12 12 -19 0 -21 -3 -12 -12z"/>
<path d="M18622 4260 c0 -14 2 -19 5 -12 2 6 2 18 0 25 -3 6 -5 1 -5 -13z"/>
<path d="M18926 4248 c30 -59 34 -68 34 -82 0 -8 -13 -17 -30 -21 -31 -7 -51
-25 -28 -25 22 0 67 24 73 39 3 7 0 20 -7 28 -7 8 -13 20 -14 27 -5 28 -24 66
-34 66 -7 0 -4 -13 6 -32z"/>
<path d="M17920 4251 c0 -12 5 -21 10 -21 6 0 10 6 10 14 0 8 -4 18 -10 21 -5
3 -10 -3 -10 -14z"/>
<path d="M17237 4253 c-13 -12 -7 -25 6 -14 8 6 17 8 20 4 4 -3 7 -1 7 5 0 13
-22 16 -33 5z"/>
<path d="M17553 4215 c0 -14 3 -22 8 -19 5 3 9 11 9 19 0 8 -4 16 -9 19 -5 3
-8 -5 -8 -19z"/>
<path d="M18245 4231 c-3 -5 -1 -12 5 -16 5 -3 10 1 10 9 0 18 -6 21 -15 7z"/>
<path d="M17250 4210 c0 -19 3 -21 12 -12 9 9 9 15 0 24 -9 9 -12 7 -12 -12z"/>
<path d="M18638 4224 c-4 -3 -3 -14 2 -23 5 -9 12 -25 16 -36 6 -17 8 -18 11
-3 5 20 -20 72 -29 62z"/>
<path d="M17940 4204 c0 -8 5 -12 10 -9 6 3 10 10 10 16 0 5 -4 9 -10 9 -5 0
-10 -7 -10 -16z"/>
<path d="M18272 4180 c0 -14 2 -19 5 -12 2 6 2 18 0 25 -3 6 -5 1 -5 -13z"/>
<path d="M17270 4166 c0 -22 3 -27 11 -19 8 8 8 16 0 30 -9 16 -10 14 -11 -11z"/>
<path d="M17570 4177 c0 -2 9 -21 19 -43 l19 -39 -41 -15 c-36 -12 -39 -15
-18 -18 13 -2 27 2 31 9 5 6 17 9 29 6 14 -3 21 0 21 9 0 8 -4 14 -10 14 -5 0
-10 6 -10 13 0 18 -24 67 -32 67 -5 0 -8 -1 -8 -3z"/>
<path d="M17960 4166 c0 -20 25 -65 49 -87 16 -15 33 -19 88 -17 37 0 52 3 33
5 -73 7 -97 14 -118 34 -13 11 -20 24 -17 30 4 5 1 9 -4 9 -6 0 -11 9 -11 20
0 11 -4 20 -10 20 -5 0 -10 -6 -10 -14z"/>
<path d="M18292 4140 c0 -14 2 -19 5 -12 2 6 2 18 0 25 -3 6 -5 1 -5 -13z"/>
<path d="M17290 4120 c0 -11 5 -20 10 -20 6 0 10 9 10 20 0 11 -4 20 -10 20
-5 0 -10 -9 -10 -20z"/>
<path d="M18680 4126 c0 -8 5 -27 12 -41 9 -19 19 -25 45 -25 18 0 33 5 33 10
0 6 14 10 30 10 17 0 30 5 30 10 0 13 -6 13 -64 -5 -45 -14 -50 -14 -62 2 -7
10 -9 20 -4 23 4 3 2 11 -6 18 -12 10 -14 10 -14 -2z"/>
<path d="M18850 4110 c0 -5 7 -10 15 -10 8 0 15 5 15 10 0 6 -7 10 -15 10 -8
0 -15 -4 -15 -10z"/>
<path d="M17315 4098 c-4 -10 -4 -26 0 -35 8 -17 8 -17 12 0 3 9 3 25 0 35 -4
16 -4 16 -12 0z"/>
<path d="M18300 4091 c0 -6 5 -13 10 -16 6 -3 10 1 10 9 0 9 -4 16 -10 16 -5
0 -10 -4 -10 -9z"/>
<path d="M17336 4044 c-8 -21 -8 -34 2 -34 4 0 9 11 10 25 2 28 -3 32 -12 9z"/>
<path d="M17470 4050 c-12 -8 -11 -10 8 -10 12 0 22 5 22 10 0 13 -11 13 -30
0z"/>
<path d="M18165 4050 c-4 -6 22 -11 74 -11 45 -1 86 -2 91 -3 6 -1 9 3 8 8 -4
13 -165 19 -173 6z"/>
<path d="M17410 4025 c-7 -8 -19 -15 -28 -15 -8 0 -13 -3 -9 -6 8 -9 77 18 71
28 -8 12 -20 10 -34 -7z"/>
<path d="M17350 3984 c0 -8 5 -12 10 -9 6 4 8 11 5 16 -9 14 -15 11 -15 -7z"/>
</g>
</svg>
